<?xml version="1.0" standalone="no"?>
<!DOCTYPE svg PUBLIC "-//W3C//DTD SVG 20010904//EN"
 "http://www.w3.org/TR/2001/REC-SVG-20010904/DTD/svg10.dtd">
<svg version="1.0" xmlns="http://www.w3.org/2000/svg"
 width="512.000000pt" height="512.000000pt" viewBox="0 0 512.000000 512.000000"
 preserveAspectRatio="xMidYMid meet">
<metadata>
Created by potrace 1.14, written by Peter Selinger 2001-2017
</metadata>
<g transform="translate(0.000000,512.000000) scale(0.100000,-0.100000)"
fill="#000000" stroke="none">
<path d="M1705 4194 c-252 -44 -482 -162 -663 -343 -213 -213 -323 -470 -326
-763 l-1 -116 -59 -17 c-264 -73 -492 -302 -579 -580 -77 -247 -39 -511 106
-732 156 -236 405 -377 683 -387 46 -2 55 -6 80 -36 47 -56 105 -109 172 -158
68 -48 211 -114 277 -127 22 -5 47 -11 55 -14 8 -3 704 -6 1545 -8 1327 -2
1538 -1 1593 12 334 79 552 383 481 671 -47 192 -206 358 -405 424 l-62 21 -6
47 c-56 395 -394 749 -770 806 -21 4 -42 8 -46 11 -4 2 -13 33 -19 67 -38 193
-163 407 -335 571 -152 144 -413 275 -606 303 -58 9 -73 15 -111 51 -120 114
-319 223 -494 270 -140 37 -375 50 -510 27z"/>
</g>
</svg>
